<?xml version="1.0" standalone="no"?>
<!DOCTYPE svg PUBLIC "-//W3C//DTD SVG 20010904//EN"
 "http://www.w3.org/TR/2001/REC-SVG-20010904/DTD/svg10.dtd">
<svg version="1.0" xmlns="http://www.w3.org/2000/svg"
 width="472.000000pt" height="472.000000pt" viewBox="0 0 472.000000 472.000000"
 preserveAspectRatio="xMidYMid meet">
<metadata>
Created by potrace 1.14, written by Peter Selinger 2001-2017
</metadata>
<g transform="translate(0.000000,472.000000) scale(0.100000,-0.100000)"
fill="#000000" stroke="none">
<path d="M4043 3149 c2 -13 9 -25 14 -26 6 -2 9 -21 7 -43 -4 -39 -3 -40 26
-40 30 0 33 5 33 53 0 9 5 17 12 17 9 0 11 -12 8 -40 -3 -22 -1 -40 4 -40 4
-1 38 -3 76 -6 l67 -4 1 37 c1 21 2 50 3 66 2 15 -1 27 -5 27 -4 0 -14 3 -22
6 -8 3 -25 -5 -37 -18 -16 -16 -21 -18 -17 -6 8 22 -14 30 -101 35 -70 4 -72
4 -69 -18z"/>
<path d="M835 3061 c-3 -2 -13 -5 -23 -6 -17 -2 -174 -32 -262 -50 -14 -3 -38
-8 -55 -11 -16 -3 -41 -12 -53 -20 -29 -19 -30 -12 34 -319 2 -11 6 -31 9 -45
14 -72 19 -86 34 -101 16 -15 24 -19 40 -19 5 0 13 -24 17 -52 4 -29 8 -55 9
-58 1 -3 7 -38 15 -77 12 -66 12 -75 -3 -91 -10 -10 -14 -22 -10 -25 3 -4 1
-7 -5 -7 -10 0 -9 -30 2 -49 3 -4 7 -24 10 -44 6 -48 16 -78 31 -94 15 -14 62
-25 67 -14 3 7 117 73 218 126 30 15 58 33 61 38 3 5 9 8 13 7 11 -2 75 31 86
45 9 11 17 9 44 -8 32 -22 32 -22 20 -64 -26 -86 4 -209 69 -283 55 -63 121
-105 182 -118 31 -6 369 -9 380 -3 13 7 27 9 110 16 39 3 80 7 91 9 12 2 45 7
74 11 29 4 61 8 70 10 34 7 126 19 148 19 12 1 22 3 22 6 0 3 8 6 18 7 9 0 33
3 52 7 19 3 49 8 65 10 28 4 43 6 130 21 17 3 50 8 75 11 25 3 58 7 75 10 66
9 133 16 180 19 28 2 51 4 53 5 5 4 191 0 226 -4 73 -10 130 -34 143 -63 15
-32 16 -63 4 -95 -12 -32 4 -68 30 -68 23 0 87 28 105 45 7 6 25 23 42 37 41
34 96 114 117 169 9 26 18 77 19 115 2 56 -2 76 -24 120 l-26 53 22 12 c19 10
28 9 49 -5 14 -9 25 -14 25 -12 0 3 12 -1 27 -9 15 -8 30 -12 34 -9 4 2 30
-18 58 -45 149 -144 310 -114 364 70 19 66 10 210 -14 225 -17 10 -9 23 14 19
39 -7 56 17 77 113 11 50 23 107 26 128 3 20 7 44 9 53 49 237 48 225 27 250
-12 16 -32 24 -72 28 -30 3 -62 9 -70 12 -22 11 -90 5 -103 -8 -8 -8 -15 -7
-26 3 -53 44 -182 57 -247 23 -22 -11 -41 -14 -60 -9 -16 4 -53 8 -81 7 -29 0
-53 3 -53 7 0 4 -11 3 -24 -2 -13 -5 -27 -6 -30 -3 -3 3 -12 1 -20 -6 -11 -9
-27 -8 -73 8 -69 23 -154 22 -202 -4 -39 -20 -96 -73 -105 -99 -9 -25 -16 -16
-23 26 -6 42 -29 78 -51 79 -9 1 -35 3 -57 4 -22 2 -85 6 -140 8 -55 3 -105 6
-110 7 -43 9 -77 -2 -92 -29 l-17 -28 -32 19 c-55 32 -67 33 -378 27 -184 -3
-175 7 -171 -182 2 -80 6 -151 10 -157 4 -6 17 -15 29 -19 19 -7 21 -16 22
-80 0 -52 -3 -71 -13 -71 -12 0 -46 -53 -39 -61 2 -2 6 -29 9 -59 4 -33 12
-59 21 -66 11 -8 80 -11 217 -10 110 0 203 -2 205 -6 3 -4 15 -4 27 1 12 5 49
7 82 6 33 -2 73 -3 89 -4 39 -1 29 -9 -20 -16 -131 -17 -174 -24 -274 -40 -91
-15 -239 -41 -280 -50 -14 -3 -41 -8 -60 -11 -19 -3 -48 -8 -65 -11 -16 -3
-40 -7 -52 -8 -12 -2 -25 -5 -30 -8 -27 -17 -284 -26 -358 -13 -80 13 -148 63
-125 91 5 7 7 15 3 18 -3 4 -4 7 0 7 3 0 12 -6 20 -14 7 -8 34 -21 58 -29 63
-21 140 -13 204 21 39 22 57 26 70 19 20 -11 113 -2 149 14 33 15 36 36 31
219 -3 85 -6 230 -8 321 -3 201 -4 203 -99 195 -142 -12 -182 -16 -240 -26
-59 -9 -132 -44 -158 -74 -20 -25 -25 -19 -26 29 -1 29 -8 53 -20 66 -17 19
-26 20 -99 14 -44 -3 -107 -8 -140 -11 -103 -7 -132 -11 -150 -21 -14 -8 -26
-5 -53 13 -19 13 -44 24 -56 25 -12 0 -36 2 -54 3 -18 1 -34 0 -37 -3z m15
-471 c0 -5 -4 -10 -10 -10 -5 0 -10 5 -10 10 0 6 5 10 10 10 6 0 10 -4 10 -10z
m270 -5 c0 -8 -2 -15 -4 -15 -2 0 -6 7 -10 15 -3 8 -1 15 4 15 6 0 10 -7 10
-15z"/>
</g>
</svg>
